<svg viewBox="0 0 160 40" version="1.1" xmlns="http://www.w3.org/2000/svg" stroke="none" stroke-width="1" fill="none" fill-rule="evenodd" fill-opacity="0"><path d="M39.0691231,18.75 C41.5712654,20.2916667 43.1976578,22.7083333 43.1976578,26.0833333 C43.1976578,31 40.3201942,34.5833333 33.6895173,34.5833333 L7,34.5833333 L7,5.41666667 L32.6886604,5.41666667 C39.3193373,5.41666667 41.3627535,8.79166667 41.3627535,13.0833333 C41.3627535,15.125 40.5287061,17.125 39.0691231,18.75 Z M14.5064267,10.8333333 L14.5064267,16.875 L30.0197087,16.875 C32.0214225,16.875 33.8563268,16.875 33.8563268,13.8333333 C33.8563268,10.8333333 32.0214225,10.8333333 29.9780063,10.8333333 L14.5064267,10.8333333 Z M31.854613,28.7916667 C33.8563268,28.7916667 35.6912311,28.7916667 35.6912311,25.7083333 C35.6912311,22.625 33.8563268,22.625 31.854613,22.625 L14.5064267,22.625 L14.5064267,28.7916667 L31.854613,28.7916667 Z M74.7246501,34.5833333 L71.5969723,28.375 L54.1236789,28.375 L50.9960011,34.5833333 L42.7389317,34.5833333 L57.7934876,5.41666667 L67.9271637,5.41666667 L83.0234219,34.5833333 L74.7246501,34.5833333 Z M56.9177378,22.7916667 L68.8029135,22.7916667 L62.8811768,10.9583333 L56.9177378,22.7916667 Z M82.1476721,24.5416667 L89.6540988,24.5416667 C89.6540988,27.625 92.1562411,29.0416667 101.664382,29.0416667 C109.54613,29.0416667 111.923165,28.1666667 111.923165,25.875 C111.923165,23.4583333 110.25507,23.0416667 100.788632,22.5833333 C88.0694087,22 83.0234219,20 83.0234219,13.4583333 C83.0234219,7.04166667 89.5706941,5 100.496715,5 C111.506141,5 118.17852,7.75 118.17852,14.9583333 L110.672094,14.9583333 C110.672094,11.75 107.461011,10.9583333 99.6626678,10.9583333 C92.2813482,10.9583333 90.5298486,11.6666667 90.5298486,13.8333333 C90.5298486,16.0833333 92.2813482,16.5 100.788632,17 C112.298486,17.625 119.429592,18.25 119.429592,25.625 C119.429592,33.4166667 112.048272,35 101.247358,35 C89.2787775,35 82.1476721,32.9583333 82.1476721,24.5416667 Z M153,11.375 L129.646672,11.375 L129.646672,17.2916667 L153,17.2916667 L153,22.7083333 L129.646672,22.7083333 L129.646672,28.625 L153,28.625 L153,34.5833333 L122.140246,34.5833333 L122.140246,5.41666667 L153,5.41666667 L153,11.375 Z" id="BASE" stroke="#111314" fill="#111314" fill-rule="nonzero"></path></svg>
